<?xml version="1.0" encoding="UTF-8"?>
<svg id="BASE" xmlns="http://www.w3.org/2000/svg" version="1.1" viewBox="0 0 1115.21 142.26">
  <!-- Generator: Adobe Illustrator 30.2.1, SVG Export Plug-In . SVG Version: 2.1.1 Build 1)  -->
  <path d="M1076.13,13.62l16.26-13.62h-20.4l-.17.56c-.49,1.61-1.16,3.16-1.98,4.61-1.98,3.5-4.59,6.32-7.76,8.38-3.14,2.05-6.39,3.09-9.65,3.09h-.8v4.46h.8c9.88,0,17.85-2.52,23.7-7.48Z"/>
  <path d="M32.57,46.1c7-4.16,14.81-6.27,23.23-6.27,6.85,0,13.4,1.46,19.47,4.35,6.07,2.89,11.33,6.94,15.64,12.03l.52.62,7.16-5.69-.56-.66c-5.16-6.07-11.47-10.89-18.75-14.33-7.29-3.44-15.19-5.19-23.48-5.19-10.11,0-19.55,2.51-28.06,7.47-8.5,4.96-15.32,11.78-20.28,20.28-4.96,8.5-7.47,17.89-7.47,27.91s2.51,19.41,7.47,27.91c4.96,8.5,11.78,15.32,20.28,20.28,8.5,4.96,17.94,7.47,28.06,7.47,8.29,0,16.2-1.75,23.48-5.19,7.28-3.44,13.59-8.26,18.75-14.33l.56-.66-7.16-5.69-.52.62c-4.31,5.1-9.58,9.14-15.64,12.03-6.06,2.89-12.61,4.35-19.47,4.35-8.43,0-16.24-2.11-23.23-6.27-7-4.16-12.64-9.87-16.75-16.97-4.11-7.1-6.2-15.02-6.2-23.54,0-8.52,2.08-16.44,6.2-23.54,4.11-7.1,9.75-12.81,16.75-16.98Z"/>
  <path d="M306.72,89.03c-4.84-2.52-11.11-4.87-18.58-6.96-1.14-.41-2.24-.73-3.2-.91-5.93-1.78-10.68-3.6-14.12-5.42-3.37-1.78-6.03-3.97-7.9-6.52-1.84-2.49-2.77-5.53-2.77-9.04,0-3.92,1.01-7.46,3.02-10.51,2.01-3.06,4.9-5.49,8.59-7.21,3.72-1.74,8.13-2.62,13.09-2.62s9.87,1.26,14.63,3.74c4.78,2.49,8.88,5.92,12.19,10.21l.52.67,7.12-5.66-.43-.64c-3.47-5.1-8.37-9.28-14.58-12.44-6.2-3.15-12.75-4.75-19.45-4.75s-12.41,1.27-17.56,3.76c-5.17,2.51-9.25,6.02-12.13,10.43-2.88,4.42-4.34,9.58-4.34,15.32s1.47,10.16,4.38,13.95c2.86,3.74,6.8,6.87,11.7,9.33,1.86.93,3.96,1.83,6.25,2.72l14.61,4.69c5.56,1.6,10.16,3.3,13.68,5.06,3.67,1.84,6.64,4.18,8.8,6.98,2.13,2.74,3.2,6.11,3.2,10,0,6.29-2.28,11.11-6.96,14.74-4.69,3.62-11.16,5.46-19.24,5.46-5.68,0-10.8-.91-15.23-2.72-4.4-1.79-7.9-4.33-10.4-7.55-2.48-3.19-3.73-6.93-3.73-11.13,0-3.5.98-6.66,2.89-9.43.33-.39.72-.7,1.13-.7h.31v-.81h-4.46s-6.28,0-6.28,0c-1.93,3.31-2.92,6.97-2.92,10.94,0,5.96,1.7,11.31,5.04,15.89,3.33,4.56,7.99,8.14,13.86,10.64,5.83,2.49,12.49,3.75,19.78,3.75s13.4-1.21,18.74-3.6c5.38-2.41,9.57-5.87,12.45-10.29,2.88-4.42,4.34-9.58,4.34-15.32s-1.47-10.37-4.37-14.31c-2.87-3.89-6.81-7.16-11.7-9.71Z"/>
  <polygon points="538.15 42.08 571.95 42.08 571.95 140.01 581.43 140.01 581.43 42.08 615.07 42.08 615.07 33.21 538.15 33.21 538.15 42.08"/>
  <path d="M701.45,95.56c5.78-2.4,10.52-6.22,14.11-11.33,3.59-5.13,5.41-11.3,5.41-18.35,0-6.13-1.51-11.76-4.47-16.72-2.96-4.96-7.01-8.9-12.02-11.71-5.01-2.81-10.66-4.24-16.78-4.24h-38.68v106.8h9.47v-63.11c1.44,4.85,3.82,9.09,7.12,12.68l47.86,50.43h11.9l-39.59-41.83c5.35.36,10.61-.51,15.68-2.61ZM664.59,76.86c-2.36-3.85-3.56-7.95-3.56-12.18v-.83h-2.55v-21.77h29.21c4.43,0,8.52,1.05,12.13,3.12,3.61,2.07,6.52,4.95,8.63,8.56,2.12,3.61,3.19,7.69,3.19,12.12s-1.07,8.54-3.19,12.2c-2.12,3.66-5.04,6.56-8.7,8.63-3.66,2.07-7.71,3.12-12.06,3.12-4.74,0-9.22-1.2-13.33-3.57-4.11-2.37-7.4-5.53-9.77-9.4Z"/>
  <polygon points="932.8 99.53 893.93 33.21 883.16 33.21 883.16 140.01 892.63 140.01 892.63 48.53 928.57 109.97 937.04 109.97 972.98 48.53 972.98 140.01 982.3 140.01 982.3 33.21 971.53 33.21 932.8 99.53"/>
  <polygon points="1028.4 140.01 1092.39 140.01 1092.39 131.14 1037.87 131.14 1037.87 91.05 1090.89 91.05 1090.89 82.17 1037.87 82.17 1037.87 42.08 1092.39 42.08 1092.39 33.21 1028.4 33.21 1028.4 140.01"/>
  <path d="M181.2,34.95h.06v-1.76h-14.43v.02h0l-41.04,106.8h10.05l11.38-30.04h50.43l11.38,30.04h10.05l-39.61-103.07c-.26-.72.14-1.96,1.73-1.99ZM150.58,101.1l21.85-57.68,21.85,57.68h-43.71Z"/>
  <path d="M1114.39,24.13c-.54-.93-1.28-1.67-2.21-2.22-.93-.54-1.94-.82-3.04-.82s-2.13.27-3.06.82c-.93.54-1.66,1.28-2.21,2.22-.54.93-.82,1.95-.82,3.05s.27,2.11.82,3.04c.54.93,1.28,1.66,2.21,2.21.93.54,1.95.82,3.06.82s2.11-.27,3.04-.82c.93-.54,1.66-1.28,2.21-2.21.54-.93.82-1.94.82-3.04s-.27-2.12-.82-3.05ZM1113.83,29.91c-.48.84-1.14,1.51-1.97,2s-1.74.73-2.72.73-1.9-.25-2.73-.74c-.83-.49-1.49-1.16-1.97-1.99-.48-.83-.72-1.74-.72-2.73s.24-1.9.73-2.74c.49-.84,1.15-1.5,1.97-1.99.83-.49,1.74-.73,2.72-.73s1.88.24,2.72.73c.83.49,1.49,1.16,1.97,2,.48.84.72,1.75.72,2.73s-.24,1.89-.72,2.73Z"/>
  <path d="M1110.83,27.3c.39-.35.58-.81.58-1.38s-.19-1.02-.58-1.37c-.39-.34-.9-.52-1.53-.52h-2.25v6.23h.77v-2.45h1.44l1.44,2.47h.88l-1.51-2.58c.29-.09.55-.21.76-.41ZM1107.81,27.08v-2.3h1.48c.4,0,.72.1.97.31.25.21.37.49.37.84s-.13.64-.37.84c-.25.21-.57.31-.97.31h-1.48Z"/>
  <path d="M407.52,34.96h.06v-1.76h-14.43l-.64,1.73-40.38,105.07h10.05l11.38-30.04h50.43l11.38,30.04h10.05l-39.7-103.32c-.09-.72.38-1.71,1.8-1.73ZM420.63,101.1h-43.71l21.85-57.68,21.85,57.68Z"/>
  <path d="M809.44,34.96h.06v-1.76h-14.43l-.65,1.76h0l-40.37,105.05h10.05l11.38-30.04h50.43l11.38,30.04h10.05l-39.71-103.33c-.08-.72.39-1.69,1.8-1.71ZM822.56,101.1h-43.71l21.85-57.68,21.85,57.68Z"/>
</svg>